<?xml version="1.0" encoding="utf-8"?>
<!-- Generator: Adobe Illustrator 24.0.1, SVG Export Plug-In . SVG Version: 6.00 Build 0)  -->
<svg version="1.1" id="Layer_1" xmlns="http://www.w3.org/2000/svg" xmlns:xlink="http://www.w3.org/1999/xlink" x="0px" y="0px"
	 viewBox="0 0 759.3 670.1" style="enable-background:new 0 0 759.3 670.1;" xml:space="preserve">
<style type="text/css">
	.st0{fill:#EA2229;}
</style>
<g>
	<rect x="125.6" y="81" class="st0" width="508" height="508"/>
	<path d="M533.3,461.4c-48.6,25.8-95.8,54.3-145,79C342,563.6,295,543,269.8,497.2C216.8,401,259,243.1,325,176
		c29.3-29.7,65.5-41.4,106.9-33.4c34.3,6.6,43.6,34.5,23.5,62.8c-31.1,43.9-35,95.7-37.5,147.2c-0.3,6.3,9.8,18.7,14.7,18.5
		c10.6-0.4,23-4.9,30.8-12c7.5-6.7,10.5-18.7,14.8-28.6c23.8-54.8,33.5-112.6,34.3-171.9c0.4-26.6-5-52-29.1-72.3
		c-0.5-0.4-1.1-0.8-1.7-1.1c-1.5-0.8-3-1.7-4.3-2.6c-1.5-1-3.3-1.6-5.2-1.6h-76.6c-2.3,0-4.4,0.8-6.1,2.3c-1.9,1.6-3.9,3-5.8,4.2
		c-1.6,0.9-3.2,1.7-4.8,2.4c-0.6,0.2-1.2,0.5-1.7,0.9c-8.7,5.9-15.8,11-23.3,15.5C248.6,168.9,195.7,265.6,179.6,383
		c-6.3,46.4,0.7,94.9,23.3,137.3c9.1,17.1,28.1,29.2,43.7,42.4c5.6,4.7,9.3,6.6,15.5,9.4c1.1,0.5,2.1,1.1,2.9,2
		c0.8,0.9,2.6,1.9,3.6,2.8c1,0.9,2.1,1.8,3.4,2.2c0,0,0.1,0,0.1,0c0.3,0.1,0.6,0.2,0.9,0.3c4,1.1,8,2.4,12.1,4
		c0.3,0.1,0.6,0.2,0.9,0.3c6,1.7,12,3.1,18.2,4.2c0.3,0.1,0.7,0.1,1,0.1c7.4,0.6,14.7,0.8,22.1,1c0.2,0,0.4,0,0.7,0
		c8.3-0.3,16.6-0.9,25-1.2c10.1-0.4,20.2,0.1,30.3-0.2c0.8,0,1.7-0.2,2.5-0.4c0.5-0.1,0.9-0.3,1.4-0.5c0.4-0.2,0.8-0.3,1.1-0.5
		c1.9-0.9,3.9-1.7,5.8-2.6c0.3-0.1,0.7-0.3,1-0.4c0.6-0.3,1.2-0.6,1.8-1c2-1.4,4-2.6,6.1-3.6c-0.8-0.3,5.1-2,4.1-2.3
		c20.8-11.6,29.8-18.3,44.9-27.7c32.9-20.6,66.1-41,97.6-63.6c4.2-3,6.2-9.2,7.9-15.7c1.6-6.3-3.5-12.3-9.9-11.6
		C542.5,458.3,537.5,459.1,533.3,461.4z"/>
</g>
</svg>
